<?xml version="1.0" standalone="no"?>
<!DOCTYPE svg PUBLIC "-//W3C//DTD SVG 20010904//EN"
 "http://www.w3.org/TR/2001/REC-SVG-20010904/DTD/svg10.dtd">
<svg version="1.0" xmlns="http://www.w3.org/2000/svg"
 width="800.000000pt" height="800.000000pt" viewBox="0 0 800.000000 800.000000"
 preserveAspectRatio="xMidYMid meet">
<metadata>
Created by potrace 1.14, written by Peter Selinger 2001-2017
</metadata>
<g transform="translate(0.000000,800.000000) scale(0.100000,-0.100000)"
fill="#000000" stroke="none">
<path d="M3670 7913 c0 -5 -19 -8 -43 -7 -23 0 -50 -4 -59 -8 -12 -6 -18 -5
-18 4 0 10 -2 10 -9 0 -4 -8 -11 -13 -15 -13 -3 1 -27 1 -52 1 -33 0 -43 -3
-38 -12 6 -10 5 -10 -7 -1 -8 6 -20 8 -27 4 -7 -4 -26 -7 -42 -6 -17 1 -30 -1
-30 -4 0 -3 -19 -7 -42 -8 -24 -1 -44 -6 -46 -11 -1 -5 -14 -7 -27 -4 -16 3
-25 0 -25 -8 0 -10 -3 -10 -14 -1 -10 8 -16 9 -21 1 -3 -6 -11 -8 -16 -5 -5 4
-9 1 -9 -5 0 -6 -4 -9 -9 -6 -4 3 -23 1 -42 -5 -19 -6 -48 -12 -66 -13 -18 -1
-35 -5 -39 -9 -4 -4 -16 -7 -26 -7 -11 0 -17 -3 -15 -7 3 -5 -5 -9 -16 -10
-38 -3 -70 -11 -122 -28 -27 -10 -56 -18 -63 -19 -8 -2 -18 -9 -23 -17 -7 -11
-9 -11 -9 0 0 10 -3 11 -14 2 -8 -7 -25 -14 -39 -16 -14 -3 -37 -11 -53 -19
-15 -8 -31 -13 -36 -10 -4 3 -8 0 -8 -5 0 -6 -9 -11 -20 -11 -11 0 -20 -4 -20
-10 0 -5 -7 -7 -15 -4 -8 4 -15 1 -15 -5 0 -6 -3 -10 -7 -9 -17 4 -111 -37
-106 -46 4 -5 -1 -7 -10 -3 -10 3 -17 2 -17 -4 0 -6 -4 -7 -10 -4 -5 3 -10 1
-10 -5 0 -6 -4 -9 -9 -5 -5 3 -12 1 -16 -5 -4 -6 -10 -8 -15 -5 -5 3 -13 -3
-19 -12 -6 -10 -11 -14 -11 -9 0 5 -7 3 -15 -4 -8 -7 -15 -9 -15 -6 0 4 -7 0
-16 -8 -8 -9 -19 -14 -24 -11 -5 3 -10 0 -12 -5 -2 -6 -13 -12 -25 -13 -12 0
-20 -4 -17 -8 2 -4 -6 -11 -18 -15 -13 -3 -29 -11 -37 -17 -7 -6 -20 -12 -28
-13 -8 -2 -23 -10 -32 -18 -10 -9 -21 -16 -25 -16 -8 0 -86 -50 -105 -68 -7
-7 -20 -11 -28 -8 -8 3 -11 2 -8 -3 3 -5 -4 -12 -15 -16 -11 -3 -20 -11 -20
-16 0 -5 -6 -9 -13 -9 -7 0 -23 -9 -35 -20 -12 -11 -26 -20 -32 -20 -5 0 -10
-4 -10 -10 0 -5 -5 -10 -11 -10 -6 0 -17 -7 -26 -15 -8 -8 -20 -12 -26 -8 -7
3 -9 3 -5 -2 8 -9 -31 -42 -44 -37 -5 1 -8 -5 -8 -14 0 -8 -4 -12 -10 -9 -5 3
-10 1 -10 -5 0 -6 -4 -8 -10 -5 -5 3 -10 -1 -10 -9 0 -9 -6 -16 -12 -16 -7 0
-30 -16 -51 -35 -21 -19 -40 -35 -42 -35 -4 0 -48 -37 -92 -77 -19 -18 -37
-33 -39 -33 -2 0 -18 -15 -35 -32 -17 -18 -37 -31 -43 -30 -6 2 -8 1 -4 -3 7
-7 -69 -85 -83 -85 -4 0 -11 -9 -14 -20 -4 -11 -11 -18 -16 -15 -5 4 -9 2 -9
-3 0 -5 -25 -35 -55 -67 -30 -31 -55 -59 -55 -61 0 -2 -10 -14 -23 -26 -12
-13 -38 -43 -57 -66 -50 -62 -69 -84 -91 -110 -10 -12 -19 -26 -19 -31 0 -5
-7 -11 -15 -15 -8 -3 -15 -12 -15 -21 0 -8 -4 -15 -9 -15 -5 0 -13 -9 -16 -20
-4 -11 -11 -18 -16 -15 -5 4 -9 -3 -9 -15 0 -12 -4 -18 -10 -15 -5 3 -10 -1
-10 -9 0 -8 -8 -20 -17 -25 -10 -6 -14 -11 -10 -11 5 0 -1 -13 -12 -29 -11
-15 -18 -31 -16 -35 3 -3 2 -4 -2 -1 -7 5 -53 -58 -53 -73 0 -5 -7 -15 -15
-22 -9 -7 -13 -15 -11 -17 2 -3 -4 -13 -15 -24 -10 -10 -19 -26 -19 -34 0 -8
-5 -15 -11 -15 -5 0 -7 -4 -4 -10 3 -5 2 -10 -4 -10 -6 0 -13 -11 -17 -25 -3
-14 -11 -25 -16 -25 -6 0 -7 -7 -4 -16 3 -8 2 -12 -4 -9 -9 6 -14 -8 -11 -27
0 -5 -4 -8 -10 -8 -5 0 -7 -4 -4 -10 3 -5 1 -10 -4 -10 -6 0 -11 -7 -11 -16 0
-8 -4 -13 -9 -9 -6 3 -8 -3 -6 -14 2 -11 -3 -22 -11 -25 -9 -3 -12 -10 -9 -16
3 -5 1 -10 -4 -10 -6 0 -10 -3 -9 -7 4 -14 -13 -53 -21 -49 -4 3 -8 -1 -8 -8
0 -21 -24 -76 -34 -76 -5 0 -5 -7 -2 -17 4 -11 3 -14 -5 -9 -8 4 -10 2 -6 -7
3 -8 1 -18 -5 -22 -6 -3 -11 -15 -11 -25 0 -10 -6 -25 -12 -32 -7 -7 -15 -22
-16 -33 -2 -11 -8 -22 -13 -23 -5 -2 -7 -8 -4 -12 3 -5 -4 -29 -16 -54 -11
-24 -22 -53 -24 -63 -2 -10 -4 -19 -5 -20 -2 -2 -3 -6 -5 -10 -1 -5 -5 -16 -9
-25 -4 -9 -8 -22 -10 -30 -1 -7 -4 -17 -8 -23 -3 -5 -9 -26 -13 -45 -4 -19
-12 -41 -17 -47 -6 -7 -7 -13 -3 -13 4 0 3 -6 -2 -12 -6 -7 -9 -22 -7 -33 1
-11 -1 -22 -6 -25 -5 -3 -10 -17 -12 -30 -2 -14 -7 -31 -12 -39 -7 -10 -5 -12
3 -6 7 4 5 -4 -4 -19 -9 -14 -15 -32 -12 -40 3 -7 0 -19 -6 -25 -6 -6 -8 -11
-4 -11 4 0 1 -16 -8 -35 -8 -20 -10 -33 -5 -30 9 5 -6 -46 -22 -79 -7 -12 -6
-16 1 -11 12 7 15 -8 4 -19 -4 -3 -8 -21 -10 -39 -3 -35 -10 -72 -13 -72 -3 0
-9 -73 -10 -113 0 -18 -4 -31 -9 -28 -4 3 -8 -1 -8 -9 0 -8 5 -15 11 -15 6 0
4 -5 -4 -10 -12 -8 -12 -10 -1 -10 9 0 10 -4 4 -12 -5 -7 -9 -30 -9 -51 1 -20
-2 -37 -5 -37 -10 0 -8 -593 2 -612 7 -13 6 -18 -3 -18 -8 0 -9 -3 -3 -8 6 -4
10 -23 9 -42 0 -19 4 -38 9 -41 5 -4 5 -15 -1 -26 -8 -14 -8 -23 -1 -30 6 -6
11 -29 12 -52 1 -22 6 -41 10 -41 5 0 5 -6 -1 -13 -7 -8 -7 -18 -2 -27 5 -8 6
-18 4 -22 -3 -4 0 -8 5 -8 6 0 11 -5 11 -11 0 -6 -6 -7 -12 -2 -7 4 -5 -5 5
-20 9 -15 14 -27 9 -27 -4 0 -8 -9 -8 -19 0 -11 3 -18 7 -15 4 2 9 -13 12 -34
2 -20 7 -48 10 -62 16 -68 19 -87 21 -107 0 -13 5 -23 9 -23 5 0 5 -4 2 -10
-3 -5 0 -10 7 -10 9 0 9 -3 -2 -10 -12 -7 -12 -10 -1 -10 7 0 11 -6 8 -15 -4
-8 -2 -17 3 -20 7 -4 22 -65 25 -100 1 -5 6 -20 13 -31 6 -12 8 -24 5 -28 -3
-3 -1 -6 6 -6 7 0 11 -6 8 -14 -3 -7 0 -19 6 -25 6 -6 8 -11 5 -11 -4 0 -1
-12 7 -27 8 -15 12 -30 9 -35 -3 -4 0 -8 6 -8 6 0 8 -4 5 -10 -3 -5 0 -10 7
-10 9 0 9 -3 -2 -10 -11 -7 -11 -10 -2 -10 7 0 10 -4 7 -10 -3 -5 -1 -10 5
-10 6 0 8 -4 5 -10 -3 -5 -1 -10 4 -10 6 0 10 -3 9 -7 -5 -19 27 -96 52 -127
8 -11 9 -16 2 -12 -17 10 -15 -9 3 -24 9 -7 14 -19 11 -27 -3 -8 -2 -11 4 -8
5 3 12 -10 16 -30 3 -19 10 -35 14 -35 8 0 25 -49 22 -62 -1 -5 3 -8 8 -8 6 0
10 -7 10 -16 0 -9 5 -12 12 -8 6 4 8 3 5 -3 -3 -5 3 -24 14 -42 11 -19 14 -30
7 -26 -7 4 -3 -2 9 -13 12 -11 20 -22 17 -25 -3 -2 6 -22 21 -42 14 -21 25
-44 25 -51 0 -8 5 -14 10 -14 6 0 10 -9 10 -20 0 -12 7 -20 18 -20 14 0 15 -2
2 -10 -13 -8 -12 -10 3 -10 10 0 17 -8 17 -20 0 -11 5 -20 10 -20 6 0 10 -7
10 -15 0 -8 5 -15 11 -15 5 0 7 -5 4 -10 -3 -6 1 -13 9 -16 9 -3 14 -9 11 -13
-2 -4 6 -18 18 -32 12 -14 23 -31 25 -39 2 -7 13 -22 24 -32 12 -10 17 -18 12
-18 -5 -1 1 -9 13 -19 12 -10 19 -21 16 -25 -4 -3 -1 -6 5 -6 7 0 12 -9 12
-21 0 -11 4 -18 8 -15 5 3 16 -9 26 -27 10 -18 30 -43 45 -56 14 -13 19 -20
11 -16 -8 4 -4 -4 10 -17 14 -14 36 -40 50 -58 43 -57 57 -70 65 -62 5 4 5 2
2 -5 -4 -6 15 -34 43 -62 27 -28 48 -51 45 -51 -2 0 6 -10 18 -23 12 -13 25
-22 29 -20 5 2 8 -1 8 -7 0 -7 11 -21 25 -32 14 -11 22 -24 19 -30 -4 -7 -2
-8 4 -4 6 4 17 -2 24 -14 7 -11 19 -20 26 -20 7 0 11 -4 8 -8 -3 -5 6 -15 19
-22 14 -7 27 -21 31 -32 3 -10 10 -18 15 -18 5 0 22 -13 37 -30 16 -16 32 -30
36 -30 4 0 19 -12 35 -28 50 -48 79 -72 85 -72 4 0 17 -10 30 -22 42 -41 64
-56 71 -50 3 3 8 -4 12 -17 3 -12 11 -20 18 -17 8 3 16 -2 19 -11 4 -9 9 -13
12 -10 3 3 20 -8 36 -24 17 -16 37 -29 44 -29 8 0 14 -4 14 -10 0 -5 5 -10 10
-10 6 0 20 -9 32 -20 12 -11 28 -20 35 -20 7 0 13 -4 13 -10 0 -5 7 -10 15
-10 8 0 15 -4 15 -10 0 -5 7 -10 15 -10 7 0 19 -8 24 -17 6 -10 11 -14 11 -10
0 5 14 -1 30 -13 16 -12 30 -18 30 -13 0 4 4 4 8 -2 11 -16 73 -57 88 -59 8
-1 20 -8 26 -14 7 -7 20 -12 30 -12 10 0 18 -4 18 -8 0 -9 121 -68 133 -64 4
1 7 -3 7 -9 0 -5 5 -7 10 -4 6 3 10 1 10 -4 0 -6 9 -11 20 -11 11 0 20 -5 20
-11 0 -6 7 -9 15 -5 8 3 15 1 15 -4 0 -6 7 -10 15 -10 8 0 15 -5 15 -11 0 -5
4 -8 9 -5 5 3 22 -1 37 -9 16 -8 35 -15 42 -15 6 0 12 -4 12 -10 0 -5 7 -6 17
-3 12 5 14 3 8 -7 -6 -9 -4 -12 6 -8 8 3 23 0 33 -7 10 -8 24 -11 32 -8 8 3
14 0 14 -7 0 -6 4 -8 10 -5 5 3 10 1 10 -5 0 -6 5 -8 10 -5 6 4 17 1 25 -5 8
-6 19 -9 25 -5 5 3 10 2 10 -2 0 -5 44 -9 98 -8 86 1 101 4 129 25 47 34 97
150 72 166 -5 3 -5 13 -1 22 10 21 9 133 -1 149 -4 6 -4 14 1 17 5 3 7 19 4
37 -3 24 -1 30 8 24 7 -4 5 4 -4 18 -13 20 -14 26 -4 30 9 4 9 6 1 6 -8 1 -9
10 -3 29 4 17 4 36 -2 47 -8 12 -7 20 3 26 12 7 11 9 -1 9 -13 0 -13 1 0 10
13 9 13 11 0 20 -12 8 -12 10 -1 10 10 0 11 3 2 13 -8 10 -7 17 1 25 7 7 8 12
3 12 -6 0 -10 14 -10 30 0 17 2 30 5 30 3 0 6 9 6 20 0 11 -5 20 -11 20 -5 0
-4 4 4 9 9 6 10 10 2 16 -9 5 -9 10 0 21 6 8 7 14 2 14 -5 0 -8 18 -6 40 2 37
0 39 -18 30 -14 -8 -19 -7 -19 2 0 10 -3 9 -9 -1 -5 -8 -22 -16 -38 -17 -15
-2 -47 -5 -69 -7 -23 -2 -46 -7 -52 -11 -6 -3 -14 -2 -17 4 -5 8 -12 7 -22 -2
-19 -15 -43 -19 -43 -7 0 6 -6 7 -12 3 -7 -5 -28 -9 -46 -11 -24 -2 -31 1 -26
10 6 9 5 9 -7 0 -8 -6 -31 -10 -52 -9 -21 2 -40 -1 -43 -6 -3 -5 -11 -5 -17 0
-7 4 -19 8 -27 7 -8 0 -18 4 -22 10 -5 7 -8 6 -8 -1 0 -8 -15 -8 -52 -2 -29 6
-64 11 -78 11 -14 1 -28 7 -32 12 -5 6 -8 4 -8 -5 -1 -12 -2 -12 -10 2 -6 10
-18 14 -30 11 -11 -3 -20 -1 -20 4 0 8 -15 12 -57 15 -7 1 -13 5 -13 10 0 4
-11 8 -25 8 -14 0 -25 5 -25 10 0 6 -9 10 -20 10 -11 0 -20 5 -20 11 0 5 -5 7
-10 4 -6 -3 -10 -1 -10 4 0 6 -3 11 -7 10 -14 -2 -53 13 -53 20 0 12 -57 41
-64 33 -4 -4 -6 -2 -4 3 2 6 1 10 -2 10 -11 1 -56 50 -53 57 2 5 -1 8 -8 8
-11 0 -89 75 -89 86 0 5 -14 23 -42 54 -9 10 -14 21 -10 24 3 4 -2 12 -11 19
-8 6 -17 21 -19 32 -2 11 -9 26 -16 33 -7 8 -10 18 -7 23 4 5 1 9 -5 9 -6 0
-9 4 -5 9 3 5 0 15 -7 23 -7 7 -14 20 -16 28 -4 19 -32 78 -54 111 -10 14 -15
29 -11 33 3 3 1 6 -5 6 -7 0 -12 5 -12 11 0 6 -6 17 -12 24 -29 32 -37 43 -33
47 3 2 -11 21 -31 42 -19 20 -32 41 -29 46 4 6 -3 10 -14 10 -12 0 -20 3 -19
8 3 15 -15 42 -28 42 -8 0 -14 7 -14 17 0 9 -3 13 -6 10 -4 -3 -20 8 -35 24
-16 17 -29 27 -29 23 0 -5 -5 -1 -11 9 -5 9 -17 17 -24 17 -8 0 -15 5 -15 10
0 6 -7 10 -15 10 -9 0 -18 7 -21 15 -4 8 -10 12 -15 9 -5 -3 -9 -1 -9 5 0 5
-9 13 -20 16 -11 3 -20 13 -20 21 0 8 -4 13 -8 10 -10 -6 -52 38 -52 54 0 6
-4 10 -9 10 -13 0 -6 46 9 65 7 8 16 13 20 10 5 -3 10 -1 12 4 1 5 21 11 43
13 22 2 46 10 53 18 8 8 11 10 8 4 -3 -7 1 -14 9 -18 8 -3 15 -1 15 4 0 6 5
10 11 10 5 0 8 -3 5 -8 -2 -4 10 -8 27 -9 52 -3 100 -12 106 -20 5 -7 24 -12
59 -15 6 -1 12 -5 12 -10 0 -4 7 -8 15 -8 9 0 18 -7 21 -15 4 -8 10 -13 14
-10 11 7 61 -20 53 -28 -3 -4 3 -7 15 -7 13 0 22 -6 22 -16 0 -8 4 -13 8 -10
5 3 33 -18 63 -47 30 -28 57 -51 62 -49 4 1 7 -7 7 -19 0 -11 4 -18 9 -15 4 3
13 -6 19 -19 7 -14 16 -25 22 -25 5 0 10 -7 10 -15 0 -9 6 -18 14 -21 8 -3 19
-19 25 -35 5 -16 15 -29 22 -29 6 0 9 -6 6 -14 -3 -8 1 -17 9 -20 9 -3 12 -10
9 -16 -3 -5 1 -10 10 -10 9 0 15 -6 13 -12 -3 -7 6 -21 19 -32 13 -10 22 -20
20 -23 -7 -6 46 -58 56 -55 4 1 7 -2 7 -6 0 -11 35 -52 44 -52 11 0 39 -30 29
-31 -4 -1 3 -4 17 -8 14 -4 24 -13 23 -19 -2 -7 0 -11 5 -10 9 3 146 -64 150
-73 2 -4 12 -5 22 -2 11 3 20 1 20 -4 0 -5 6 -10 13 -11 23 -2 82 -11 112 -16
80 -14 115 -15 115 -4 0 7 4 7 13 -1 8 -6 16 -9 18 -6 3 2 23 5 44 6 22 1 48
7 59 12 14 7 16 6 11 -4 -6 -8 -4 -10 4 -5 7 5 27 10 44 13 18 2 36 8 41 13 5
5 15 6 22 3 8 -3 14 0 14 6 0 6 5 11 11 11 5 0 7 -6 3 -13 -5 -8 -2 -8 9 2 9
7 17 11 17 7 0 -4 10 0 22 8 13 8 38 17 56 21 17 4 32 11 32 16 0 5 9 9 19 9
14 0 18 5 14 20 -3 12 0 20 7 20 10 0 10 3 0 15 -10 12 -10 15 0 15 7 0 10 8
7 20 -3 11 -1 23 5 26 5 3 8 14 5 24 -3 11 1 21 8 23 6 3 11 19 10 36 -1 16 2
28 7 25 4 -3 8 4 8 15 0 12 4 21 8 21 4 0 8 10 9 22 1 11 8 25 15 29 7 5 9 9
4 9 -5 0 -2 8 7 18 10 10 14 22 10 25 -3 4 -1 7 5 7 6 0 14 9 17 21 6 19 14
29 60 80 8 9 15 21 15 27 0 7 5 11 11 9 6 -1 13 6 14 16 3 16 -9 21 -45 19 -8
0 -23 4 -33 10 -15 8 -18 7 -12 -3 6 -8 4 -10 -6 -3 -8 4 -23 10 -34 11 -63 9
-75 12 -86 19 -8 5 -10 3 -4 -5 6 -10 3 -11 -14 -2 -11 7 -36 12 -56 13 -19 1
-32 4 -30 7 2 4 -4 7 -13 7 -28 1 -88 13 -113 22 -13 5 -32 8 -41 7 -10 -2
-18 1 -18 7 0 6 -7 8 -15 4 -8 -3 -15 0 -15 5 0 6 -9 9 -20 6 -11 -3 -20 -2
-20 3 0 4 -7 11 -16 14 -10 4 -13 2 -8 -7 6 -9 5 -9 -8 0 -8 7 -18 10 -21 6
-4 -3 -7 -1 -7 5 0 7 -11 12 -25 12 -14 0 -25 5 -25 11 0 5 -4 8 -8 5 -5 -3
-21 2 -37 10 -16 8 -36 16 -44 17 -9 2 -30 11 -47 20 -17 9 -34 13 -38 10 -3
-4 -6 0 -6 7 0 7 -3 11 -6 7 -4 -3 -13 1 -21 9 -8 8 -19 12 -24 9 -5 -4 -9 -3
-9 2 0 4 -27 21 -60 38 -33 16 -60 33 -60 38 0 4 -4 5 -10 2 -5 -3 -10 1 -10
9 0 9 -3 15 -7 14 -12 -2 -78 30 -75 36 1 3 -1 6 -5 5 -3 0 -10 6 -15 15 -5 9
-16 16 -24 16 -8 0 -12 5 -9 10 3 6 1 10 -5 10 -7 0 -25 14 -40 30 -15 17 -31
30 -34 30 -8 0 -73 69 -106 111 -14 18 -30 38 -37 45 -7 6 -9 14 -6 18 4 3 -2
6 -12 6 -10 0 -16 3 -12 6 3 4 1 12 -6 20 -30 33 -35 42 -30 48 4 3 1 6 -6 6
-7 0 -10 4 -7 9 3 5 -1 11 -9 15 -8 3 -15 12 -15 21 0 8 -4 15 -9 15 -8 0 -24
37 -22 53 1 4 -4 7 -10 7 -5 0 -7 5 -4 10 3 6 2 10 -4 10 -10 0 -27 38 -23 53
1 4 -3 7 -9 7 -5 0 -7 5 -4 10 3 6 1 10 -5 10 -6 0 -9 4 -6 8 3 5 -7 26 -21
47 -14 21 -21 35 -14 31 15 -10 14 6 -3 29 -8 11 -12 25 -9 32 3 7 1 13 -5 13
-8 0 -14 17 -27 75 -1 6 -3 13 -5 18 -1 4 -4 12 -5 17 -1 6 -3 11 -5 13 -3 4
-9 40 -12 70 -1 15 -5 27 -8 27 -3 0 -7 14 -8 32 -2 18 -8 35 -13 39 -8 4 -7
8 2 11 8 3 9 9 4 19 -9 14 -15 50 -18 104 -1 17 -5 33 -10 36 -5 4 -4 16 3 29
7 12 8 20 2 16 -8 -5 -10 14 -14 124 0 8 -5 20 -10 27 -5 7 -5 14 1 17 11 7 9
25 -3 45 -6 10 -5 12 2 7 13 -8 12 20 -1 42 -5 7 -3 12 3 12 6 0 8 5 4 12 -11
17 -11 58 -1 58 5 0 4 6 -2 14 -9 10 -9 16 -1 21 8 5 8 11 1 19 -6 8 -7 16 -1
22 5 5 11 41 14 79 3 39 7 84 10 100 3 17 7 39 9 50 2 11 7 27 10 35 4 8 8 24
10 35 1 11 7 26 11 34 7 11 6 12 -5 6 -11 -7 -12 -6 -3 6 11 14 45 109 50 139
2 8 8 16 14 18 5 2 8 8 4 13 -3 5 0 9 5 9 6 0 10 3 9 8 -3 13 14 56 34 84 11
16 17 32 14 37 -3 5 1 11 9 15 8 3 15 12 15 21 0 8 5 15 10 15 6 0 10 5 10 10
0 20 73 119 83 113 6 -3 7 -1 3 5 -4 6 2 20 14 32 11 11 17 20 14 20 -3 0 8
13 25 29 16 15 27 31 24 35 -3 3 -1 6 5 6 6 0 10 9 9 20 -1 11 -4 20 -7 20 -4
0 -7 7 -8 15 -1 8 -3 22 -4 30 -1 8 -4 15 -8 15 -7 0 -8 5 -12 60 -2 19 -7 38
-11 41 -5 4 -10 27 -10 53 -1 25 -4 46 -7 46 -3 0 -6 9 -7 20 -1 13 2 18 10
13 9 -5 9 -3 0 8 -6 8 -10 29 -9 47 1 17 -3 32 -8 32 -7 0 -8 3 -1 8 6 4 10
21 10 37 0 17 -4 33 -10 37 -7 5 -7 8 0 8 6 0 10 19 9 43 -1 23 3 50 8 61 8
14 7 17 -4 10 -10 -6 -11 -5 -2 7 6 8 10 31 10 51 -1 21 2 38 5 38 6 0 8 10
11 55 1 14 6 25 10 25 4 0 8 5 8 11 0 5 -5 7 -11 3 -6 -3 -4 5 5 18 9 14 13
28 9 31 -3 4 -1 7 6 7 7 0 9 5 6 11 -4 5 -2 22 3 37 6 15 14 36 18 47 4 11 8
23 9 28 2 4 4 9 5 12 1 3 3 8 4 13 6 27 28 49 48 47 13 -1 29 2 36 8 6 5 12 5
12 0 0 -5 9 -9 20 -10 13 -1 18 2 14 9 -5 7 -2 8 7 2 8 -5 30 -10 49 -11 32
-3 67 -9 80 -13 3 -1 13 -1 24 0 10 1 16 -2 13 -7 -3 -5 4 -10 16 -11 41 -3
92 -15 97 -22 3 -5 16 -10 30 -11 14 -2 27 -7 30 -11 3 -4 15 -9 25 -11 11 -2
36 -10 55 -20 19 -9 42 -17 50 -19 8 -2 21 -9 28 -16 8 -7 18 -10 23 -7 5 4 9
2 9 -3 0 -9 36 -25 52 -23 3 0 12 -6 18 -14 7 -8 18 -15 25 -15 7 0 18 -7 25
-15 7 -9 19 -14 27 -11 7 3 13 1 13 -4 0 -6 7 -10 15 -10 8 0 15 -4 15 -10 0
-5 10 -14 21 -21 17 -9 20 -8 14 2 -5 8 -4 10 3 5 7 -4 12 -14 12 -21 0 -9 6
-12 15 -9 8 4 15 1 15 -7 0 -7 3 -10 6 -6 3 3 15 -3 27 -14 11 -10 27 -19 34
-19 7 0 13 -5 13 -12 0 -6 3 -9 6 -5 4 3 12 1 20 -6 33 -30 42 -35 48 -30 3 4
6 1 6 -5 0 -7 10 -10 23 -8 12 3 22 5 22 6 0 2 36 10 77 17 21 3 36 9 34 12
-3 4 11 6 29 6 19 -1 36 4 39 11 4 9 13 10 36 4 19 -5 28 -5 25 1 -4 5 4 9 17
10 13 0 34 3 48 5 14 2 36 6 50 8 14 2 25 5 25 6 0 1 11 3 25 4 14 1 36 6 49
10 18 6 22 5 16 -5 -6 -11 -5 -11 5 -2 7 6 19 9 28 6 11 -5 13 -2 7 6 -6 10
-3 11 13 2 12 -6 23 -7 26 -2 3 4 24 8 46 7 22 -1 46 1 52 5 7 5 19 2 27 -4
12 -10 13 -9 7 2 -7 10 -3 12 13 6 13 -4 21 -2 21 6 0 8 3 9 13 0 8 -6 16 -9
19 -6 3 3 37 6 76 7 43 1 72 6 72 12 0 8 2 8 8 0 10 -14 85 -15 94 0 6 8 8 8
8 -1 0 -8 17 -12 48 -12 108 1 168 -4 181 -14 11 -9 13 -9 8 -1 -4 8 2 11 18
10 14 0 25 -3 25 -6 0 -3 19 -5 43 -5 23 1 48 -3 55 -8 8 -6 12 -5 12 3 0 8 4
9 13 3 6 -6 31 -10 54 -9 22 1 39 -3 35 -8 -3 -5 5 -7 16 -4 12 4 22 3 22 -1
0 -4 10 -8 23 -9 56 -4 122 -11 125 -12 1 -2 5 -3 10 -5 4 -1 18 -5 32 -9 14
-4 39 -9 55 -11 17 -2 30 -4 30 -5 0 -2 30 -9 55 -14 8 -2 22 -6 30 -9 28 -11
80 -15 80 -6 0 5 7 9 16 9 9 0 12 5 8 12 -5 8 -2 9 9 5 11 -4 17 -1 17 8 0 8
3 14 8 13 11 -2 62 24 62 33 0 4 11 10 25 13 14 4 24 10 21 15 -3 4 0 8 7 8 7
0 31 12 55 26 23 15 42 24 42 20 0 -4 7 2 15 13 8 10 15 15 15 10 0 -5 9 -1
20 9 11 10 20 15 20 10 0 -4 7 -2 15 5 8 7 15 10 15 6 0 -3 9 3 20 14 12 12
25 18 30 15 6 -4 10 -1 10 5 0 7 7 9 16 6 10 -4 13 -2 8 6 -5 7 -2 9 9 5 9 -3
17 -2 19 3 2 5 10 10 18 12 8 2 18 7 21 11 3 5 12 9 20 10 8 2 20 6 27 10 6 5
16 6 21 3 5 -4 11 -2 13 4 1 5 13 11 26 13 13 2 28 10 33 18 8 12 10 12 18 0
6 -9 10 -10 12 -2 3 7 14 13 27 14 12 0 22 4 22 8 0 3 11 5 25 4 14 -2 25 1
25 7 0 6 9 8 20 5 11 -3 20 0 20 6 0 8 4 7 9 -2 5 -8 10 -9 12 -2 2 5 27 12
54 13 28 2 55 7 61 10 6 4 14 4 18 1 4 -4 15 -8 24 -8 9 -1 29 -2 45 -3 20 -2
27 -7 27 -22 0 -11 5 -20 12 -20 6 0 8 -3 5 -7 -4 -3 -2 -12 3 -19 6 -6 10
-16 9 -20 -4 -15 13 -68 29 -91 11 -17 11 -23 2 -23 -9 0 -10 -3 -1 -13 6 -8
13 -31 17 -53 3 -21 10 -44 14 -49 5 -6 5 -17 0 -25 -5 -8 -5 -19 0 -25 4 -5
10 -33 13 -61 2 -29 8 -57 11 -63 4 -6 2 -11 -4 -11 -6 0 -8 -5 -4 -12 10 -16
12 -137 2 -165 -4 -14 -3 -23 5 -27 8 -3 9 -7 2 -13 -6 -4 -11 -19 -12 -33 -3
-47 -10 -87 -18 -100 -6 -9 -4 -11 5 -5 10 6 11 4 4 -6 -4 -8 -10 -20 -11 -26
-2 -7 -4 -19 -6 -25 -1 -7 -6 -19 -11 -26 -4 -7 -5 -16 -2 -19 3 -3 -1 -18
-10 -34 -8 -16 -12 -29 -8 -29 4 0 1 -6 -5 -13 -11 -14 4 -40 52 -92 46 -51
67 -79 72 -95 3 -10 12 -21 20 -24 8 -3 15 -14 15 -25 0 -11 6 -24 13 -28 17
-11 48 -69 40 -77 -3 -3 1 -6 10 -6 10 0 16 -3 15 -7 -3 -13 25 -83 34 -83 4
0 5 -7 2 -15 -4 -8 -1 -15 6 -15 6 0 8 -4 5 -10 -3 -5 -1 -10 5 -10 6 0 9 -4
6 -9 -3 -4 1 -16 8 -27 8 -10 12 -24 9 -30 -2 -7 1 -15 6 -19 6 -3 9 -11 6
-16 -4 -5 -2 -9 3 -9 5 0 9 -14 10 -32 0 -17 4 -34 9 -37 4 -3 9 -15 10 -26 1
-11 5 -33 8 -50 4 -16 8 -34 9 -40 1 -5 4 -14 7 -20 2 -5 4 -27 4 -47 -1 -21
3 -38 7 -38 5 0 7 -18 4 -39 -3 -21 -2 -41 1 -44 6 -7 9 -257 3 -257 -3 0 -5
-25 -3 -55 1 -37 -2 -53 -9 -49 -7 4 -7 0 1 -13 6 -11 8 -23 5 -26 -4 -3 -8
-27 -10 -52 -2 -26 -6 -56 -10 -67 -4 -15 -3 -19 7 -14 8 4 5 0 -5 -8 -11 -9
-14 -16 -7 -16 7 0 9 -5 5 -12 -4 -6 -8 -23 -10 -37 -1 -14 -3 -26 -4 -26 -1
0 -3 -17 -4 -39 -2 -21 -9 -42 -16 -46 -10 -6 -10 -8 0 -12 9 -3 8 -9 -4 -21
-10 -9 -13 -17 -8 -17 6 0 8 -9 5 -20 -3 -11 -10 -20 -15 -20 -7 0 -6 -5 1
-13 8 -10 7 -17 -1 -25 -11 -11 -16 -26 -20 -64 -1 -10 -6 -18 -10 -18 -4 0
-7 -3 -7 -7 3 -17 -14 -73 -22 -73 -4 0 -6 -9 -4 -20 2 -11 0 -18 -4 -15 -8 5
-26 -41 -23 -57 1 -5 -3 -8 -9 -8 -5 0 -7 -5 -4 -10 3 -5 1 -10 -6 -10 -7 0
-9 -3 -6 -7 4 -3 -1 -15 -10 -26 -13 -15 -14 -18 -3 -12 15 8 -15 -33 -33 -46
-5 -3 -9 -10 -9 -15 -1 -19 -17 -50 -32 -63 -9 -7 -13 -17 -10 -22 3 -5 0 -9
-7 -9 -7 0 -10 -3 -6 -6 9 -9 -16 -33 -28 -26 -5 3 -7 1 -2 -3 4 -5 0 -17 -10
-27 -9 -10 -13 -18 -10 -18 4 0 -7 -13 -23 -29 -17 -15 -30 -34 -30 -40 0 -7
-4 -9 -10 -6 -5 3 -10 2 -10 -2 0 -12 -106 -123 -117 -123 -5 0 -17 -11 -27
-25 -11 -14 -26 -23 -33 -21 -8 3 -11 1 -8 -4 3 -6 -10 -19 -29 -31 -20 -12
-36 -25 -36 -31 0 -5 -4 -7 -9 -3 -6 3 -14 -3 -20 -12 -6 -10 -11 -14 -11 -10
0 4 -20 -6 -44 -22 -24 -17 -46 -27 -50 -24 -3 4 -6 1 -6 -5 0 -6 -16 -16 -35
-22 -21 -7 -32 -16 -28 -23 4 -6 0 -8 -10 -4 -10 4 -17 1 -17 -5 0 -6 -3 -9
-6 -5 -3 3 -23 -3 -45 -15 -21 -11 -44 -21 -51 -22 -7 -2 -26 -9 -43 -16 -40
-18 -35 -16 -72 -25 -18 -4 -33 -11 -33 -15 0 -4 -10 -7 -22 -6 -13 1 -29 -5
-37 -12 -11 -10 -16 -11 -21 -2 -6 9 -9 9 -11 1 -3 -7 -19 -14 -38 -16 -18 -2
-38 -8 -45 -13 -6 -4 -22 -8 -36 -7 -14 0 -27 -2 -30 -6 -3 -4 -21 -9 -41 -12
-20 -2 -41 -7 -47 -11 -6 -3 -13 0 -15 6 -4 10 -6 10 -6 1 -1 -8 -15 -13 -37
-13 -19 0 -33 -3 -31 -7 3 -5 -14 -9 -36 -10 -82 -5 -124 -10 -136 -17 -6 -4
-20 -2 -29 5 -9 7 -14 9 -10 5 4 -5 0 -15 -10 -22 -16 -13 -16 -13 1 -14 9 0
17 -4 17 -9 0 -5 14 -23 30 -39 17 -17 30 -33 30 -37 0 -8 43 -69 53 -73 4 -2
5 -8 1 -13 -3 -5 0 -9 6 -9 6 0 9 -4 5 -9 -3 -5 2 -16 10 -25 9 -8 16 -18 16
-21 -1 -19 13 -65 19 -65 4 0 11 -7 14 -16 4 -10 2 -13 -7 -8 -8 5 -7 2 2 -9
7 -9 10 -17 5 -17 -4 0 -3 -5 4 -12 7 -7 12 -22 12 -35 0 -13 7 -39 15 -59 9
-22 10 -32 3 -28 -8 5 -9 1 -3 -12 4 -10 9 -39 10 -64 2 -25 7 -54 11 -64 6
-15 4 -17 -7 -11 -11 7 -12 6 -3 -6 14 -18 14 -52 0 -61 -8 -6 -8 -8 1 -8 14
0 15 -58 1 -66 -5 -3 -5 -11 0 -17 13 -18 12 -57 -1 -57 -8 0 -8 -3 -2 -8 14
-9 14 -45 0 -54 -7 -5 -6 -8 1 -8 14 0 13 -68 0 -89 -6 -9 -5 -12 2 -7 14 8
12 -34 -2 -53 -8 -11 -8 -13 0 -8 15 9 14 -95 0 -105 -8 -5 -7 -8 1 -8 14 0
15 -58 1 -66 -5 -3 -5 -11 0 -17 13 -18 12 -57 -1 -57 -8 0 -8 -3 -2 -8 15
-10 16 -84 1 -75 -8 5 -8 3 0 -8 14 -19 16 -61 2 -53 -7 5 -8 2 -2 -7 11 -18
12 -89 0 -89 -5 0 -4 -6 3 -13 8 -10 7 -17 -1 -25 -7 -7 -8 -12 -2 -12 5 0 10
-9 10 -20 0 -11 -4 -20 -9 -20 -4 0 -5 -6 0 -12 11 -19 12 -37 2 -44 -5 -3 -5
-13 1 -25 8 -14 7 -19 -1 -19 -8 0 -9 -4 0 -13 8 -10 7 -17 -1 -25 -9 -9 -9
-12 0 -12 9 0 10 -5 3 -19 -8 -14 -7 -22 4 -31 7 -6 11 -18 8 -26 -3 -8 1 -14
8 -14 7 0 10 -3 6 -6 -3 -3 -1 -11 4 -18 5 -6 18 -22 29 -35 11 -13 20 -20 20
-16 0 4 8 1 18 -7 13 -12 39 -14 117 -11 120 4 135 5 135 14 0 4 7 10 16 13
10 4 13 2 8 -7 -5 -7 -1 -6 10 3 10 8 25 15 34 17 9 1 18 7 20 13 2 5 8 7 13
4 6 -3 17 0 26 8 9 7 19 12 22 11 3 -1 26 7 51 18 25 11 53 21 63 22 9 1 17 4
17 8 0 7 27 19 43 19 4 -1 15 6 23 15 9 8 24 15 35 15 10 0 19 5 19 10 0 6 9
10 21 10 11 0 17 4 14 10 -3 5 0 7 8 4 8 -3 17 3 21 13 6 15 9 15 16 3 8 -12
10 -12 16 3 3 9 15 17 25 17 10 0 19 4 19 9 0 10 30 23 42 18 4 -1 14 7 22 18
9 11 16 16 16 12 0 -5 7 -1 16 7 8 9 21 16 28 16 7 0 21 9 31 20 10 11 26 20
37 20 10 0 18 3 18 8 0 4 16 16 35 26 19 11 35 23 35 28 0 5 4 7 8 4 5 -3 19
4 30 15 12 11 22 17 22 14 0 -4 7 1 16 9 8 9 23 16 32 16 15 0 15 2 2 10 -13
8 -12 10 3 10 9 0 17 5 17 10 0 6 3 9 8 9 20 -3 32 2 26 13 -4 6 -3 8 3 5 6
-4 22 3 35 16 54 48 78 67 78 59 0 -4 7 2 15 12 8 11 15 17 15 13 0 -4 19 12
42 35 23 24 38 36 33 28 -5 -8 4 -3 21 12 16 15 44 41 63 57 18 17 37 31 43
31 5 0 6 4 3 10 -3 5 1 10 10 10 9 0 13 5 10 10 -3 6 -1 10 5 10 6 0 26 16 44
35 19 19 39 35 46 35 7 0 10 3 7 7 -4 3 9 19 28 36 19 16 32 33 29 38 -3 5 3
6 12 2 13 -5 16 -3 11 10 -3 9 -2 17 4 17 5 0 23 13 39 30 16 16 28 30 26 30
-3 0 20 25 50 55 30 30 52 55 48 55 -4 0 2 9 14 20 12 12 22 25 22 31 0 6 5 7
10 4 6 -3 10 -1 10 4 0 10 19 36 48 66 6 8 12 16 12 19 0 4 12 19 26 35 14 16
25 32 25 35 -1 3 7 15 17 25 36 40 47 56 44 63 -1 5 3 8 9 8 5 0 7 5 4 10 -3
6 -2 10 4 10 6 0 18 14 27 32 9 17 26 40 38 51 11 10 15 15 7 11 -7 -4 -3 8
10 27 13 19 27 35 32 37 4 2 7 12 7 21 0 10 9 26 20 36 11 10 20 24 20 31 0 7
7 20 16 28 8 9 12 16 7 16 -4 0 -2 4 5 9 7 4 15 17 16 27 2 10 9 18 14 17 6
-2 9 4 6 12 -4 8 -1 15 6 15 6 0 8 5 5 10 -3 6 -1 10 4 10 6 0 11 7 11 15 0 8
4 15 10 15 5 0 7 7 4 15 -4 8 -1 15 6 15 7 0 10 7 6 16 -3 8 -2 12 4 9 6 -3
10 3 10 14 0 12 4 21 9 21 5 0 12 12 16 27 3 16 13 35 20 43 7 8 14 18 14 23
0 23 26 75 34 70 6 -3 7 -1 3 6 -4 6 -2 18 4 26 7 8 9 15 5 15 -4 0 -2 6 4 13
6 8 8 17 4 20 -3 4 -1 7 6 7 7 0 10 4 6 9 -3 5 -1 12 5 16 5 3 10 15 10 26 0
11 4 18 9 14 6 -3 8 6 5 21 -3 14 -1 23 5 20 5 -3 12 14 15 39 4 25 11 45 15
45 7 0 37 99 33 113 -1 4 2 7 8 7 6 0 9 3 9 8 -4 25 2 42 14 36 9 -6 9 -4 -1
8 -9 11 -10 18 -2 23 5 3 10 17 10 30 0 13 4 26 9 30 6 3 10 13 10 23 2 44 6
62 13 62 4 0 5 9 3 20 -2 11 1 20 7 20 6 0 8 11 6 25 -3 14 -1 28 4 31 4 3 6
10 3 15 -4 5 -2 9 3 9 5 0 8 12 6 27 -1 15 2 33 7 39 5 7 11 31 13 55 2 24 5
44 6 44 2 0 3 14 4 30 1 17 5 35 9 41 3 6 5 21 2 33 -2 12 1 21 8 21 7 0 6 4
-3 10 -8 5 -10 10 -4 10 6 0 11 12 11 28 2 57 8 87 18 94 6 5 4 8 -5 8 -13 0
-13 1 0 10 11 7 11 10 2 10 -7 0 -10 5 -7 11 4 6 8 37 9 70 2 32 5 62 9 65 3
3 1 19 -3 35 -5 16 -5 29 -1 29 9 0 7 92 -2 107 -4 7 -3 14 3 18 6 4 8 11 5
16 -4 5 0 9 7 9 9 0 9 3 2 8 -6 4 -10 26 -9 50 0 24 -3 46 -7 48 -5 3 -5 11
-1 17 9 14 11 137 2 132 -3 -2 -5 25 -5 61 1 35 -1 64 -4 64 -3 0 -6 15 -7 33
-2 60 -6 102 -12 112 -10 18 -8 45 3 45 7 0 7 3 1 8 -12 8 -16 24 -21 72 -3
43 -12 90 -21 110 -3 8 -6 29 -7 45 -1 17 -5 36 -10 43 -4 7 -5 16 -2 19 3 3
1 14 -4 23 -5 10 -11 32 -12 49 -1 17 -7 31 -12 31 -5 0 -7 3 -4 6 3 3 2 21
-4 41 -16 57 -20 77 -21 96 -1 9 -4 17 -8 17 -4 0 -10 17 -15 38 -8 38 -10 46
-14 60 -1 4 -2 10 -1 15 0 4 -4 7 -9 7 -5 0 -9 3 -9 8 1 4 0 9 -1 12 -3 10
-11 45 -12 58 -1 6 -5 12 -10 12 -5 0 -7 4 -3 9 3 5 1 12 -5 16 -6 4 -8 10 -5
15 3 5 1 11 -5 15 -6 4 -8 11 -5 16 4 5 2 9 -2 9 -5 0 -9 10 -10 22 -1 11 -8
25 -15 29 -7 5 -9 9 -4 9 5 0 3 7 -4 15 -6 8 -9 19 -5 25 3 5 1 10 -4 10 -6 0
-11 9 -11 19 0 11 -5 21 -10 23 -6 2 -12 13 -13 26 0 12 -5 22 -9 22 -4 0 -8
9 -8 20 0 11 -4 20 -10 20 -5 0 -9 3 -8 8 1 4 -13 39 -32 77 -19 39 -33 73
-32 78 1 4 -3 7 -8 7 -6 0 -10 7 -10 15 0 8 -4 15 -10 15 -5 0 -9 3 -8 8 2 12
-20 60 -32 67 -5 3 -8 11 -5 16 4 5 1 9 -5 9 -6 0 -9 4 -6 9 3 5 -1 12 -10 15
-8 3 -12 10 -9 16 3 5 1 10 -4 10 -6 0 -11 9 -11 21 0 11 -4 18 -8 15 -4 -2
-14 10 -22 27 -7 18 -18 35 -24 39 -6 4 -12 11 -12 15 -5 26 -17 52 -23 48 -4
-2 -15 11 -24 30 -9 19 -22 35 -27 35 -6 0 -9 4 -6 9 3 5 -6 21 -20 36 -14 15
-23 30 -20 33 3 3 -3 11 -14 19 -11 8 -20 21 -20 29 0 8 -4 12 -10 9 -5 -3
-10 1 -10 9 0 8 -10 22 -22 30 -12 9 -18 16 -13 16 6 1 -1 10 -14 20 -13 11
-21 20 -17 20 7 0 -21 35 -51 65 -13 12 -23 26 -23 29 0 4 -18 25 -40 47 -21
21 -37 39 -34 39 3 0 -8 12 -23 26 -15 15 -27 30 -26 35 2 4 -6 11 -17 14 -11
4 -20 11 -20 16 0 15 -26 39 -34 32 -3 -4 -6 -1 -6 6 0 15 -51 67 -62 63 -4
-1 -8 2 -8 7 0 13 -58 70 -64 63 -3 -3 -6 2 -6 12 0 9 -4 14 -10 11 -5 -3 -10
-1 -10 5 0 6 -5 8 -12 4 -7 -4 -8 -3 -4 4 3 6 -3 16 -14 22 -11 6 -17 16 -14
22 4 6 3 8 -3 5 -6 -4 -18 2 -28 13 -10 11 -23 17 -29 13 -6 -3 -8 -3 -4 1 8
10 -14 36 -24 29 -5 -2 -8 3 -8 11 0 9 -7 16 -15 16 -8 0 -15 5 -15 10 0 6 -5
10 -12 10 -6 0 -24 14 -40 32 -15 17 -28 28 -28 23 0 -4 -9 2 -20 15 -11 13
-20 20 -20 17 0 -7 -36 21 -71 55 -9 9 -20 14 -23 10 -4 -3 -13 4 -22 16 -8
12 -20 20 -25 17 -5 -4 -9 -2 -9 2 0 5 -13 17 -30 26 -16 10 -35 23 -42 30 -7
7 -30 21 -52 32 -21 11 -40 26 -43 32 -3 7 -9 10 -14 7 -5 -3 -16 2 -25 10 -8
9 -22 16 -30 16 -8 0 -12 5 -9 10 3 6 -3 10 -14 10 -12 0 -21 5 -21 11 0 5 -4
8 -9 5 -5 -4 -11 -1 -13 4 -2 6 -11 12 -19 13 -9 2 -24 11 -33 20 -10 9 -22
15 -27 12 -5 -4 -9 -1 -9 5 0 6 -4 9 -9 5 -6 -3 -14 2 -19 11 -5 9 -11 15 -13
13 -9 -5 -49 13 -49 22 0 6 -5 7 -10 4 -6 -3 -17 1 -26 9 -9 9 -20 14 -25 11
-5 -4 -9 -1 -9 4 0 6 -11 11 -25 11 -14 0 -25 5 -25 11 0 5 -4 7 -10 4 -5 -3
-10 -1 -10 4 0 6 -9 11 -21 11 -11 0 -17 4 -14 10 3 6 -1 7 -9 4 -9 -3 -16 -1
-16 5 0 6 -3 10 -7 10 -5 -1 -11 0 -15 1 -5 1 -11 3 -15 4 -5 1 -24 9 -43 18
-55 25 -74 31 -89 29 -7 -1 -10 2 -6 8 3 6 0 9 -8 5 -8 -3 -18 -1 -22 5 -3 6
-15 11 -26 11 -10 0 -19 4 -19 8 0 4 -15 9 -32 10 -18 2 -34 7 -36 12 -2 6
-15 10 -28 10 -13 0 -24 3 -24 8 0 4 -14 8 -32 9 -17 1 -34 6 -37 11 -3 4 -14
8 -23 9 -35 1 -39 3 -33 13 4 7 -3 7 -20 0 -14 -5 -24 -6 -21 -1 3 5 -1 12
-10 15 -9 3 -12 2 -8 -5 4 -7 1 -7 -12 0 -26 15 -136 41 -146 35 -4 -3 -8 -1
-8 4 0 5 -11 8 -25 7 -14 -2 -25 0 -25 4 0 4 -17 8 -37 9 -21 2 -40 8 -44 14
-5 7 -9 7 -13 -1 -5 -8 -13 -8 -27 0 -11 6 -44 12 -74 13 -29 2 -57 6 -61 9
-5 3 -25 6 -44 8 -19 2 -41 8 -49 13 -11 8 -13 8 -7 -1 4 -7 3 -13 -3 -13 -5
0 -13 5 -16 10 -4 7 -13 6 -27 -1 -12 -6 -18 -7 -14 -1 7 12 29 11 -348 17
-237 4 -313 2 -325 -8 -12 -9 -13 -9 -7 1 4 6 2 12 -3 12 -6 0 -11 -3 -11 -7z"/>
<path d="M1441 2277 c-6 -6 -19 -12 -28 -12 -25 0 -23 -27 3 -53 13 -12 24
-20 24 -18 0 3 10 2 23 -3 15 -6 26 -4 35 5 15 16 16 44 1 44 -5 0 -8 4 -5 8
2 4 1 14 -5 22 -7 13 -9 13 -9 0 -1 -12 -3 -12 -14 2 -10 14 -15 15 -25 5z"/>
<path d="M1595 2140 c-11 -4 -22 -6 -25 -4 -3 1 -6 -12 -5 -29 0 -33 27 -82
38 -70 4 3 7 1 7 -5 0 -7 12 -12 26 -12 28 0 60 25 45 35 -6 3 -8 12 -5 19 3
7 -2 20 -10 29 -8 8 -12 17 -9 21 4 3 -3 6 -14 6 -12 0 -23 4 -25 9 -1 4 -12
5 -23 1z"/>
<path d="M1740 1930 c0 -6 -5 -8 -12 -4 -7 5 -9 2 -5 -9 3 -9 1 -17 -5 -19 -8
-3 -9 -11 -3 -24 4 -10 9 -21 9 -24 3 -12 25 -44 26 -36 0 5 8 2 18 -6 18 -16
52 -20 52 -6 0 4 5 7 11 6 14 -4 21 49 8 58 -5 3 -7 10 -4 15 4 5 -1 12 -9 15
-9 3 -14 10 -11 14 7 11 -2 16 -42 25 -22 4 -33 3 -33 -5z"/>
<path d="M1919 1701 c-18 -20 -32 -64 -18 -55 5 3 9 -2 9 -10 0 -9 5 -16 11
-16 5 0 8 -4 5 -8 -11 -18 48 -48 82 -42 18 3 32 9 32 14 -1 5 4 12 11 17 10
6 10 11 1 22 -7 7 -9 17 -5 20 3 4 -6 19 -20 33 -15 15 -27 24 -27 20 0 -4 -8
0 -17 10 -12 11 -18 13 -21 5 -3 -8 -8 -9 -16 -2 -9 7 -17 5 -27 -8z"/>
<path d="M2192 1531 c-7 -4 -17 -22 -22 -40 -8 -29 -7 -32 8 -26 9 3 13 3 9
-1 -9 -10 23 -45 34 -38 5 3 9 1 9 -4 0 -5 19 -8 42 -7 46 3 70 25 63 59 -2
12 -4 24 -4 29 -1 4 -7 7 -15 7 -8 0 -16 5 -18 11 -4 13 -88 21 -106 10z"/>
<path d="M2848 1516 c3 -5 -2 -7 -11 -3 -11 4 -17 1 -17 -9 0 -8 -6 -17 -13
-20 -24 -9 -18 -49 11 -66 28 -16 100 -17 111 -1 3 6 15 15 26 21 12 7 14 12
6 12 -11 0 -11 3 0 17 11 13 11 17 2 20 -7 3 -13 11 -13 19 0 9 -4 12 -10 9
-5 -3 -10 -2 -10 2 0 5 -20 9 -44 9 -25 -1 -42 -5 -38 -10z"/>
<path d="M2527 1478 c-15 -5 -25 -14 -21 -19 3 -5 0 -9 -5 -9 -21 0 -11 -47
14 -68 14 -12 25 -17 25 -11 0 7 5 8 13 3 11 -9 31 -10 50 -4 4 1 10 3 15 4
15 3 56 36 44 36 -7 0 -10 5 -7 10 11 18 -5 48 -33 58 -34 12 -59 12 -95 0z"/>
</g>
</svg>
