<?xml version="1.0" standalone="no"?>
<!DOCTYPE svg PUBLIC "-//W3C//DTD SVG 20010904//EN"
 "http://www.w3.org/TR/2001/REC-SVG-20010904/DTD/svg10.dtd">
<svg version="1.0" xmlns="http://www.w3.org/2000/svg"
 width="700.000000pt" height="700.000000pt" viewBox="0 0 700.000000 700.000000"
 preserveAspectRatio="xMidYMid meet">
<metadata>
Created by potrace 1.14, written by Peter Selinger 2001-2017
</metadata>
<g transform="translate(0.000000,700.000000) scale(0.100000,-0.100000)"
fill="#000000" stroke="none">
<path d="M3369 6616 c-2 -2 -51 -6 -108 -10 -58 -4 -107 -9 -110 -10 -3 -2
-33 -7 -66 -10 -61 -6 -108 -13 -135 -21 -8 -2 -31 -7 -50 -10 -28 -5 -109
-24 -250 -60 -59 -14 -207 -66 -325 -112 -513 -202 -943 -520 -1320 -974 -103
-124 -256 -365 -349 -549 -90 -178 -198 -464 -231 -612 -21 -97 -44 -210 -49
-243 -4 -22 -8 -53 -11 -70 -12 -74 -15 -107 -22 -205 -11 -170 -5 -462 12
-549 2 -14 7 -47 10 -75 13 -116 46 -255 165 -696 17 -63 47 -176 66 -250 20
-74 44 -166 55 -205 11 -38 22 -79 24 -90 3 -11 14 -51 25 -90 16 -57 91 -338
105 -395 2 -8 16 -58 30 -110 14 -52 34 -126 45 -165 24 -93 217 -811 241
-900 10 -38 26 -100 35 -137 l16 -68 2914 0 2914 0 -2 1318 -3 1317 -28 100
c-15 55 -34 123 -42 150 -8 28 -37 133 -64 235 -27 102 -61 230 -76 285 -15
55 -28 107 -30 115 -2 8 -29 107 -60 220 -31 113 -58 216 -61 230 -3 14 -13
54 -24 90 -10 36 -39 144 -65 240 -26 96 -59 213 -75 260 -296 892 -1011 1594
-1930 1897 -228 75 -434 119 -710 150 -47 5 -456 13 -461 9z"/>
</g>
</svg>
